<?xml version="1.0" encoding="UTF-8"?>
<svg version="1.1" xmlns="http://www.w3.org/2000/svg" width="900" height="1336">
<path d="M0 0 C0.99 0 1.98 0 3 0 C3.20044922 0.64324219 3.40089844 1.28648437 3.60742188 1.94921875 C8.59442711 17.80359822 14.32176211 32.02455461 22.7109375 46.359375 C24.10125705 48.7382493 25.48917007 51.11850746 26.875 53.5 C27.22446686 54.09986725 27.57393372 54.6997345 27.93399048 55.31777954 C34.31796305 66.32651912 39.48424361 77.59910884 44.03955078 89.49316406 C44.90917605 91.76294349 45.80458422 94.01971938 46.71484375 96.2734375 C50 104.51817867 50 104.51817867 50 108 C50.66 108 51.32 108 52 108 C52.17378174 107.39559082 52.34756348 106.79118164 52.52661133 106.16845703 C58.63620783 85.31592031 67.64051605 66.6907369 78.5625 48 C87.62617077 32.44645744 93.88646935 17.23241098 99 0 C99.99 0 100.98 0 102 0 C107.52694605 16.58083814 101.01956162 36.51262191 93.625 51.3125 C93.11098633 52.33287354 92.59697266 53.35324707 92.06738281 54.40454102 C87.26746663 64.07300554 83.31883243 73.973275 79.5 84.0625 C79.0546994 85.22345688 79.0546994 85.22345688 78.60040283 86.40786743 C72.54756691 102.23116967 67.82402272 117.85957941 67.8671875 134.94921875 C67.86520859 136.21450661 67.86520859 136.21450661 67.8631897 137.50535583 C67.86128456 140.2327754 67.86758775 142.96009098 67.875 145.6875 C67.87588623 146.61520203 67.87677246 147.54290405 67.87768555 148.49871826 C67.89583132 164.6837038 68.25625196 180.83139238 69 197 C69.85658203 195.77990234 69.85658203 195.77990234 70.73046875 194.53515625 C81.6177974 179.11391385 93.07653446 164.1339249 105.44140625 149.86450195 C121.01205942 132.46485732 121.01205942 132.46485732 125.359375 110.2265625 C124.87849518 105.90909805 124.00188761 104.08765583 121 101 C117.28515324 98.52343549 115.52171351 98.69615636 111.23046875 99.2421875 C107.2476654 100.59536412 106.00749445 103.43831631 104 107 C103.01 106.67 102.02 106.34 101 106 C100.55427625 100.53988407 100.60636376 96.18783709 103.66015625 91.50390625 C107.40800915 87.29713259 112.58203146 85.39190993 118.078125 84.76171875 C123.88820825 84.56317274 128.30241819 85.44720703 133 89 C136.41597379 92.62390263 139.03884034 96.05058014 140 101 C143.35643765 98.00854811 145.01112646 95.28156025 146.6875 91.125 C147.10386719 90.11695313 147.52023437 89.10890625 147.94921875 88.0703125 C149.69636712 82.96526187 150.1350775 77.92093113 150.39453125 72.5546875 C151.52772509 51.43946292 153.33183336 32.15893572 163 13 C163.66 13 164.32 13 165 13 C166.31558609 45.28784155 166.31558609 45.28784155 166 61 C165.98743164 61.75925781 165.97486328 62.51851563 165.96191406 63.30078125 C165.43413117 88.59127569 157.66941925 108.57163504 143 129 C142.55221191 129.62648438 142.10442383 130.25296875 141.64306641 130.8984375 C136.51405764 138.04586529 131.21704542 145.05849191 125.83984375 152.02050781 C96.04907246 190.59393573 69.34837326 233.96010011 69.9375 284.625 C69.95103516 286.16027344 69.95103516 286.16027344 69.96484375 287.7265625 C69.97644531 288.47679687 69.98804688 289.22703125 70 290 C70.49628906 288.97261719 70.99257813 287.94523437 71.50390625 286.88671875 C79.93244503 269.61145518 90.05261289 250.24899501 109.3125 243.5 C117.51627946 241.2669619 126.17909697 241.4392887 134.06640625 244.8828125 C142.69941704 249.87077429 147.44878562 256.80489134 151 266 C154.20350005 278.47989282 151.37093505 289.35248701 145.125 300.25 C141.76775034 305.58760199 138.28194527 310.47870315 133 314 C132.01 314 131.02 314 130 314 C130.40530199 308.0555708 132.42247703 303.28689734 134.84375 297.8671875 C138.41035526 289.02297041 137.47689005 278.12068156 134.25 269.25 C132.98579858 266.55124379 132.00090126 265.00090126 129.875 262.875 C123.46346918 260.92366453 117.91186325 261.24526362 111.8125 264.0625 C97.75498875 271.97944471 91.05413226 287.33310638 86 302 C85.75008301 302.72509766 85.50016602 303.45019531 85.24267578 304.19726562 C77.24650072 327.9474774 72.20094701 353.87422278 73 379 C73.45246094 378.62230469 73.90492188 378.24460937 74.37109375 377.85546875 C91.4725833 364.05143087 111.14880042 354.07042518 130.59033203 344.0378418 C174.16181073 322.41544376 174.16181073 322.41544376 204.375 286.0625 C207.95126434 268.53880475 199.4356994 253.22508818 191.92578125 238.015625 C181.96863053 217.77777168 181.96863053 217.77777168 181.82421875 207.05078125 C181.80037109 206.11943359 181.77652344 205.18808594 181.75195312 204.22851562 C181.70942086 202.30425274 181.67793619 200.37970984 181.65820312 198.45507812 C181.46086051 191.77755461 180.39210821 185.84964176 177 180 C171.89358446 175.43886662 165.72195078 175.38799708 159.12890625 175.6171875 C153.29284182 176.33121286 149.65792917 178.20764414 145.6875 182.5 C141.66313357 190.84683408 140.52342249 199.83108182 140 209 C138.07421875 208.625 138.07421875 208.625 136 208 C131.97524266 201.22146132 132.72329639 192.54468959 134.15234375 185.125 C136.65712967 175.89076618 140.93564838 168.32934865 149 163 C156.33251415 158.92469771 164.22757536 157.7985954 172.33203125 160.09375 C173.82853106 160.55279902 175.32203883 161.02170804 176.8125 161.5 C181.81659423 163.27218526 181.81659423 163.27218526 187 164 C192.68527625 155.28257642 193.38784537 146.17011928 193.375 135.9375 C193.37701416 134.91615967 193.37902832 133.89481934 193.38110352 132.8425293 C193.26448882 123.77073426 192.01014813 115.016326 190.33544922 106.11108398 C190.05918701 104.62717163 190.05918701 104.62717163 189.77734375 103.11328125 C189.60452881 102.24485596 189.43171387 101.37643066 189.25366211 100.48168945 C188.97596353 97.76484051 189.33670997 95.63633434 190 93 C192.69607077 93.3478801 193.75632545 93.70833839 195.52734375 95.828125 C205.89187957 113.62871284 210.15912344 131.52219923 205.05126953 151.66259766 C203.54897795 157.21677379 201.97493057 162.74671437 200.32324219 168.25830078 C193.87931722 189.91790504 196.17250528 210.22694132 206.77734375 230.0390625 C209.35832471 234.70765244 212.11029179 239.27167418 214.90478516 243.81494141 C217.71628875 248.41231407 219.98577859 253.00823391 222 258 C230.97950803 245.42868875 232.97205573 230.56251204 235.52929688 215.6953125 C240.51794576 187.12960519 254.15688389 151.16862022 277 132 C277.99 132 278.98 132 280 132 C279.56263555 138.39555888 277.96541305 142.71690284 274.8125 148.25 C273.98893145 149.75615415 273.16601644 151.26266583 272.34375 152.76953125 C271.56299332 154.17996069 270.78178502 155.59014029 270 157 C258.48394541 178.01679962 254.03377396 201.25542045 251 224.8125 C248.50918512 243.84405627 243.4497883 259.77888279 235 277 C234.67708984 277.65967773 234.35417969 278.31935547 234.02148438 278.99902344 C230.39270646 286.30708688 226.31642708 292.81422006 221 299 C220.33355469 299.78761719 219.66710937 300.57523437 218.98046875 301.38671875 C197.20312832 326.38161218 168.33819685 343.48108029 138.9375 358 C125.21305086 364.79016173 111.44907205 371.66939858 100 382 C99.22269531 382.69609375 98.44539063 383.3921875 97.64453125 384.109375 C80.71769254 400.10055931 73.67031906 423.4417823 71 446 C71.69222656 445.38253906 72.38445312 444.76507812 73.09765625 444.12890625 C95.12322492 425.06329542 121.63964325 414.39584402 151 416 C165.98392744 417.27401838 180.56237717 421.47432433 195.05004883 425.29150391 C209.40562089 428.73931241 225.39965138 428.56424304 238.4375 421.125 C247.72131689 415.08903599 253.12389178 407.57925123 256 397 C256.226875 396.175 256.45375 395.35 256.6875 394.5 C257.57535628 387.39714977 257.82639667 379.4525427 253.859375 373.203125 C251.72217438 370.49943747 250.30507945 369.10169315 247 368 C241.70512196 367.49295516 237.34499019 367.35152259 232.5 369.6875 C230.030263 371.97200672 228.67929651 374.12120598 227 377 C226.01 377 225.02 377 224 377 C222.11524076 371.34572228 222.05958421 365.28896533 224.5625 359.8125 C226.9563481 355.59967055 230.1960233 351.99820823 234 349 C234.66 349 235.32 349 236 349 C235.68546875 348.12859375 235.3709375 347.2571875 235.046875 346.359375 C230.38288516 331.39284045 233.12131777 312.83015474 240 299 C243.75528482 291.89243654 247.78566331 285.89722931 255 282 C257.23828125 281.3515625 257.23828125 281.3515625 259 281 C259.33 281.66 259.66 282.32 260 283 C259.14453125 284.8203125 259.14453125 284.8203125 257.8125 287.125 C252.98320271 296.39348422 250.43419698 307.57927248 250 318 C249.9484375 318.969375 249.896875 319.93875 249.84375 320.9375 C249.37469388 337.1981123 254.3032074 349.72528208 262.56298828 363.2590332 C270.34917959 376.06997779 274.14882761 385.7895225 273 401 C271.66250635 406.33095809 269.48974742 411.12144086 267 416 C283.6165075 413.4868939 298.44897814 406.04326924 311 395 C311.7734375 394.32195312 312.546875 393.64390625 313.34375 392.9453125 C324.61838132 382.40430445 332.91011366 367.12055479 334.203125 351.5546875 C334.51819731 333.54305353 331.0917383 312.10702801 319 298 C313.87611185 292.75086125 309.15576317 289.73289059 301.625 289.625 C296.15151665 289.75760121 293.26222043 290.52063638 289 294 C283.24403285 302.43152374 283.39826523 311.18937451 285 321 C282.16157499 320.91651691 280.45950686 320.4276272 278.3671875 318.48046875 C273.61200906 313.02464807 272.69415298 309.11378907 272.7890625 301.91015625 C273.35202613 294.14334321 276.45758001 287.48480647 282 282 C288.59040101 277.21076704 293.79603964 274.85446668 301.9375 274.875 C302.95714844 274.87242187 303.97679687 274.86984375 305.02734375 274.8671875 C307.79588725 274.99088064 310.30539535 275.37473262 313 276 C312.2884375 274.205625 312.2884375 274.205625 311.5625 272.375 C305.6619664 257.49539354 307.15980098 235.59536775 313.25390625 220.99609375 C316.31873763 214.72446331 319.86926765 210.42484408 326 207 C329.61930698 205.79356434 332.19231005 205.67731441 336 206 C340.97583168 208.48791584 344.5291151 212.02614079 347 217 C347.3125 220.4375 347.3125 220.4375 347 223 C343 223 343 223 341.25 221.5 C337.93695699 219.29130466 334.79621696 219.24984934 331 220 C325.68623683 223.26071831 324.3365366 228.4547752 322.73046875 234.2890625 C317.92206855 258.71676403 329.39612202 281.54107229 338.734375 303.40625 C345.34249363 318.92463937 350.47501097 332.96410598 351 350 C357.58092177 333.66451668 361.7517898 317.05495968 365.2734375 299.8203125 C370.13041408 276.12858931 378.35011515 255.43766322 399 241 C406.216362 236.63169554 413.48954863 233.50330626 422 233 C422.66 233.33 423.32 233.66 424 234 C423 237 423 237 420.59375 238.359375 C419.5728125 238.81828125 418.551875 239.2771875 417.5 239.75 C411.65990821 242.56291995 406.85290505 245.71957921 402 250 C401.23816406 250.66773438 400.47632813 251.33546875 399.69140625 252.0234375 C385.3851 265.38885683 382.37081264 282.57783676 379.90505981 301.11138916 C378.06256975 314.76994848 375.5307908 327.9484852 371 341 C370.658479 341.99773437 370.658479 341.99773437 370.31005859 343.015625 C362.24628987 366.03157402 348.95539421 386.59422813 332 404 C331.360625 404.71285156 330.72125 405.42570312 330.0625 406.16015625 C314.27679326 423.27267886 290.25053027 431.30386151 268.8125 438.5625 C266.97165972 439.19495885 265.1311631 439.82841886 263.29101562 440.46289062 C258.86452725 441.9867545 254.43370261 443.49726226 250 445 C251.15242187 446.41732422 251.15242187 446.41732422 252.328125 447.86328125 C252.7602832 448.39477783 253.19244141 448.92627441 253.63769531 449.47387695 C255.12317708 451.22465433 255.12317708 451.22465433 257.75 453.1875 C262.58023469 457.07135283 266.18862339 462.15560585 270 467 C270.42974121 467.54366211 270.85948242 468.08732422 271.30224609 468.64746094 C275.48264702 473.93682296 279.64774669 479.23777723 283.7578125 484.58203125 C297.3390108 502.18415402 312.40657984 519.94912294 335.7421875 523.40625 C345.86763914 524.53988835 354.00218788 523.48738674 362.671875 517.8984375 C370.0858673 511.85279949 374.32395382 503.06595757 375.8125 493.75 C376.45961446 485.77810055 375.31481421 477.25803973 370.609375 470.62890625 C367.08951654 467.06633106 362.795454 465.10335305 357.78125 464.91796875 C354.12758971 465.27924486 351.20037163 466.2855152 348 468 C346.68 468 345.36 468 344 468 C343.42217627 464.69815009 343.53090353 462.68094649 345.453125 459.890625 C352.07457294 452.26761351 352.07457294 452.26761351 356.1640625 451.69921875 C356.97617187 451.69535156 357.78828125 451.69148438 358.625 451.6875 C359.42164063 451.67074219 360.21828125 451.65398437 361.0390625 451.63671875 C365.23403231 452.15140502 369.03933081 453.56405368 373 455 C373.12004395 454.4423999 373.24008789 453.8847998 373.36376953 453.31030273 C378.44246279 430.0548564 386.00427667 405.01451507 407 391 C409.9375 390.125 409.9375 390.125 412 390 C410.68553798 393.65343121 409.07723774 396.46475787 406.75 399.5625 C391.13283874 421.51094286 387.44821024 449.33498189 391.54296875 475.46484375 C393.64090677 491.69248399 391.18422501 506.32349102 382 520 C376.74133849 526.70918897 370.65083229 532.67933417 364 538 C384.28041744 537.37502566 404.09432171 531.5859667 418.578125 516.765625 C427.4703603 506.61126598 429.84546263 491.81980942 433 479 C436 480 436 480 437.625 483.1875 C442.02495842 494.5905336 440.67589117 507.44927107 435.91015625 518.53515625 C434.99372413 520.38432712 434.0052128 522.19754946 433 524 C433.825 524.061875 434.65 524.12375 435.5 524.1875 C441.05182545 525.47631662 445.19730196 528.2947451 449.3125 532.1875 C453.66966331 539.44943885 455.10511838 547.62370498 454 556 C452.19771023 562.21146297 448.36863296 566.51147534 443 570 C438.73163756 572.15041073 434.83730955 573.45349777 430 573 C430 568.85038992 431.77458506 567.55738942 434.4375 564.4375 C439.43658624 558.62677133 439.43658624 558.62677133 440.39453125 551.16015625 C439.63625996 547.00843327 437.2366867 544.55833919 434 542 C427.12106064 537.82221484 420.76655849 537.18780302 413 539 C407.06878997 540.90646037 401.54640299 543.73054006 395.95703125 546.44921875 C395.04937012 546.8882251 394.14170898 547.32723145 393.20654297 547.77954102 C391.40748178 548.65369251 389.6131967 549.53776784 387.82470703 550.43334961 C377.87178701 555.30426834 368.8952405 557.49382663 357.8125 557.1875 C356.86052734 557.17396484 355.90855469 557.16042969 354.92773438 557.14648438 C352.61785499 557.11166207 350.30926105 557.06270797 348 557 C348.14002441 557.65371582 348.28004883 558.30743164 348.42431641 558.98095703 C350.77914673 570.28872314 351.22537641 580.35843287 346 591 C341.98448176 596.94332236 337.06656027 602.05282737 330 604 C325.08036141 604.72572308 320.73333343 604.86526785 316.4375 602.125 C314 600 314 600 313 598 C312.95977609 595.6670134 312.95679753 593.33293334 313 591 C315.23110851 592.03587181 317.00637397 593.00552411 318.875 594.625 C321.75183444 596.48648111 323.63054944 596.35098443 327 596 C329.57768449 595.14077184 330.64955641 594.57508692 332.06640625 592.25 C336.66432662 581.16881954 334.38113512 563.77029051 330 553 C329.67 552.01 329.34 551.02 329 550 C327.68970227 549.28912583 326.34986105 548.63253251 325 548 C307.20985284 535.57513532 291.96592942 519.80167723 278.41015625 502.94921875 C273.41952863 496.84237296 268.19889938 490.92954639 263 485 C262.20464844 484.08992188 261.40929687 483.17984375 260.58984375 482.2421875 C258.42414912 479.79742877 256.22426947 477.39156495 254 475 C252.66775391 473.55173828 252.66775391 473.55173828 251.30859375 472.07421875 C240.4268055 460.53130984 228.40883358 452.27152968 213 448 C212.05608398 447.73622559 211.11216797 447.47245117 210.13964844 447.20068359 C159.29217431 432.83597302 159.29217431 432.83597302 109.1875 444.8125 C92.39422329 454.66025606 82.88373402 468.60608826 75 486 C75.52207031 485.55269531 76.04414063 485.10539062 76.58203125 484.64453125 C89.05047124 474.40337826 103.24885338 470.40342794 119.25 470.5625 C120.88569946 470.57494751 120.88569946 470.57494751 122.55444336 470.58764648 C148.4126013 471.1250433 170.93525154 483.64982849 189.37109375 501.265625 C204.80821211 517.42510419 213.2140391 540.15714371 221.6875 560.4375 C231.33202172 586.22100063 231.33202172 586.22100063 250.02734375 605.08203125 C254.35827114 606.73823457 257.4347087 607.55634931 262 606 C265.44777901 603.11580025 266.83901381 600.48295856 268.25 596.25 C268.58515625 595.26515625 268.9203125 594.2803125 269.265625 593.265625 C269.50796875 592.51796875 269.7503125 591.7703125 270 591 C270.99 591 271.98 591 273 591 C275.05550007 597.16650021 275.08538284 604.52816064 272.375 610.5 C269.91262649 614.70000588 266.58883374 616.99787081 262.0625 618.75 C253.24183714 619.81917126 246.08051102 618.05908042 238.94140625 612.70703125 C226.74147845 602.28294404 218.97495501 588.98964319 211.21630859 575.16552734 C209.49474323 572.10043607 207.74722754 569.05052081 206 566 C205.38125 567.39412109 205.38125 567.39412109 204.75 568.81640625 C201.01867666 576.92521695 197.49492268 583.94583993 189.03125 587.92578125 C183.82750306 589.60873909 179.06640915 588.86963091 174 587 C169.30256158 584.24280788 167.70516339 581.11549016 166 576 C165.8125 573.0625 165.8125 573.0625 166 571 C166.99 570.67 167.98 570.34 169 570 C169.495 570.78375 169.99 571.5675 170.5 572.375 C173.70745546 575.74282824 176.3728411 576.80107541 181 577 C186.22673737 575.51909108 189.17583684 573.63969662 192 569 C194.56626788 562.91659445 195.52306852 557.32315629 195.4375 550.75 C195.42992676 549.92443604 195.42235352 549.09887207 195.41455078 548.24829102 C194.98122793 531.98919525 187.54311167 519.11141806 176 508 C167.12507451 500.55166998 156.19603004 494.91637377 145 492 C145.21934204 492.80667114 145.21934204 492.80667114 145.44311523 493.62963867 C151.24994531 515.21925323 153.26329253 532.15283672 142.03271484 552.22167969 C140.20012972 555.37736527 138.23806827 558.42147312 136.12890625 561.3984375 C133.0065679 565.82805246 133.68152021 570.76359975 134 576 C134.91114536 579.32186171 134.91114536 579.32186171 136 582 C136 583.32 136 584.64 136 586 C130.73683698 584.60680979 128.02031096 581.30690868 125 577 C121.99174507 570.98349014 122.07268825 563.78698572 123.65234375 557.3359375 C125.92032626 550.73640042 129.13827265 544.60092531 132.4140625 538.45703125 C135.47439399 531.78611163 136.36779971 525.54719169 136.3125 518.25 C136.30686035 517.4664917 136.3012207 516.6829834 136.29541016 515.87573242 C136.11096704 506.9758953 135.30769968 497.87019968 128.7109375 491.2734375 C122.15566179 486.39439667 113.58363056 487.90357149 106 489 C95.59880939 491.01504548 87.08232863 496.2683135 81 505 C73.90735515 515.90433835 73.55647188 528.97258885 73.75 541.5625 C73.75515625 542.82384766 73.7603125 544.08519531 73.765625 545.38476562 C73.81348816 553.42178286 74.03803562 561.45327239 74.28361082 569.48636484 C74.94522182 591.24118896 75.26211924 612.99135317 75.47232056 634.75469828 C75.51997796 639.60251429 75.57170827 644.450287 75.62304688 649.29806519 C75.74150173 660.54101408 75.85545812 671.78400613 75.96875 683.02700806 C76.14205925 700.20814875 76.31791949 717.38926235 76.5 734.5703125 C76.51544113 736.02776068 76.51544113 736.02776068 76.53119421 737.51465225 C76.95039862 776.93167558 77.38905526 816.35579892 78.875 855.75 C78.91635071 856.86483765 78.95770142 857.97967529 79.00030518 859.1282959 C78.37884498 951.83874376 78.37884498 951.83874376 118 1031 C118.72703125 1031.72574219 119.4540625 1032.45148438 120.203125 1033.19921875 C126.54401893 1039.16498346 133.82066419 1043.96461602 141.07666016 1048.73535156 C142.77176574 1049.84992975 144.45520022 1050.98221485 146.13671875 1052.1171875 C163.28985801 1063.02218463 185.39152811 1062.95701678 205.09320068 1065.24285889 C277.07863493 1073.61532906 277.07863493 1073.61532906 297.9375 1099.39453125 C302.14767368 1105.49725897 305.20119147 1111.37243415 304 1119 C301.72578968 1123.46095102 298.66591629 1127.88239184 294 1130 C288.08622461 1130.94498473 282.04376084 1131.26941011 276.875 1127.875 C272.78776894 1124.26444353 271.1138397 1120.70759556 270.75 1115.25 C271 1112 271 1112 272 1110 C272.66 1110 273.32 1110 274 1110 C274.433125 1110.94875 274.86625 1111.8975 275.3125 1112.875 C276.79302201 1116.20041937 276.79302201 1116.20041937 280 1118 C282.62531524 1118.16713569 282.62531524 1118.16713569 285 1118 C285.41981564 1111.91267324 285.16672773 1108.79173689 281 1104 C263.10244067 1086.43213255 227.65767388 1081.95251993 203.83203125 1081.9296875 C202.22128075 1081.94737417 200.61054211 1081.96862958 199 1082 C199.7734375 1082.54527344 200.546875 1083.09054687 201.34375 1083.65234375 C219.10708191 1096.51317193 219.10708191 1096.51317193 222 1107 C222.69312785 1113.67383105 222.44714036 1119.17552146 219 1125 C215.31225857 1128.89261596 212.31872969 1129.82561542 207 1130 C200.67133961 1129.52101926 195.90399645 1128.11854609 191.28125 1123.6484375 C189.31952427 1121.12450988 188.93124223 1119.16285722 189 1116 C189.9375 1113.625 189.9375 1113.625 191 1112 C191.66 1112 192.32 1112 193 1112 C193.33 1113.32 193.66 1114.64 194 1116 C199.05009595 1116.93786082 199.05009595 1116.93786082 204 1116 C205.04407466 1111.73669515 205.22479971 1109.53389932 203.5 1105.4375 C195.84660381 1093.84065899 181.84145307 1090.02890795 169 1087 C158.6480441 1084.8987429 148.50602355 1084.77105518 138 1085 C138.61488281 1085.72445313 139.22976563 1086.44890625 139.86328125 1087.1953125 C140.67152344 1088.16210938 141.47976563 1089.12890625 142.3125 1090.125 C143.11300781 1091.07632812 143.91351562 1092.02765625 144.73828125 1093.0078125 C150.41305637 1100.51537337 150.92859318 1106.78629211 150 1116 C148.47846929 1121.79981328 146.16594252 1125.73729946 141 1129 C136.99619783 1131.00190109 132.34207109 1130.62798549 128 1130 C123.84288777 1127.87737556 121.56155511 1125.17194111 119.5625 1121 C118.84022254 1117.14785354 118.20352565 1113.59294869 120 1110 C120.66 1110 121.32 1110 122 1110 C122.37125 1111.134375 122.7425 1112.26875 123.125 1113.4375 C123.87209092 1115.37713519 123.87209092 1115.37713519 125 1117 C128.03451971 1118.14603837 128.03451971 1118.14603837 131 1118 C132.61253453 1116.38746547 132.24791423 1114.66400957 132.3125 1112.4375 C132.213227 1105.46853507 129.74337183 1100.7245767 125.25 1095.5 C104.463849 1076.21115649 68.10286063 1075.24987126 41.58203125 1076.13842773 C19.99272902 1077.171333 -7.20447417 1080.47773342 -23.6875 1096 C-29.56188374 1102.56622765 -30.46325684 1108.47264262 -30 1117 C-27.65466049 1117.76956136 -27.65466049 1117.76956136 -25 1118 C-22.03908733 1116.02605822 -21.15090927 1113.27566484 -20 1110 C-19.34 1110 -18.68 1110 -18 1110 C-16.11766787 1113.76466426 -17.01515507 1118.02502346 -18 1122 C-20.06618988 1125.37115191 -22.43432653 1128.21716327 -26 1130 C-31.20185538 1130.51848559 -35.63560371 1130.62018013 -40.4375 1128.4375 C-44.919416 1124.17421405 -47.79762358 1119.13294271 -48.203125 1112.85546875 C-48.21859375 1111.64503906 -48.2340625 1110.43460938 -48.25 1109.1875 C-48.27578125 1107.98480469 -48.3015625 1106.78210937 -48.328125 1105.54296875 C-47.728749 1099.07113502 -44.40216328 1094.98517955 -40.3125 1090.125 C-39.10013672 1088.67480469 -39.10013672 1088.67480469 -37.86328125 1087.1953125 C-37.24839844 1086.47085937 -36.63351562 1085.74640625 -36 1085 C-56.85511305 1084.28723031 -81.44033414 1086.34979851 -97.90625 1100.65625 C-102.49395535 1105.41707631 -103 1109.47927183 -103 1116 C-101.741875 1116.185625 -100.48375 1116.37125 -99.1875 1116.5625 C-98.47980469 1116.66691406 -97.77210938 1116.77132813 -97.04296875 1116.87890625 C-94.7974658 1117.13904799 -94.7974658 1117.13904799 -92 1116 C-90.79117904 1113.99983534 -90.79117904 1113.99983534 -90 1112 C-89.34 1112.33 -88.68 1112.66 -88 1113 C-86.93539642 1116.52138108 -86.87571631 1118.58572104 -87.9375 1122.125 C-91.41245739 1126.96888 -96.20616185 1128.88079109 -102 1129.875 C-106.41561119 1130.22268592 -109.83320678 1129.52782418 -114 1128 C-118.39325034 1123.72236151 -120.28469533 1118.89772134 -120.4375 1112.8125 C-120.25088211 1104.64522293 -116.85744804 1098.66112673 -111.3125 1092.8125 C-106.91252643 1088.68174088 -102.01778231 1085.32887309 -97 1082 C-122.44146507 1081.50444663 -157.22320191 1085.52786178 -177.515625 1102.54296875 C-180.45612747 1105.42930406 -182.77569279 1107.93637369 -183.234375 1112.15625 C-183.24810341 1114.10568438 -183.13412849 1116.05513692 -183 1118 C-178.06105439 1117.76623573 -178.06105439 1117.76623573 -174.125 1115.125 C-172.88012574 1112.91437553 -172.88012574 1112.91437553 -172 1110 C-171.34 1110 -170.68 1110 -170 1110 C-168.44055661 1113.11888678 -168.71683725 1115.5454145 -169 1119 C-170.41258021 1122.87450571 -172.53567408 1125.53567408 -175.4375 1128.4375 C-180.94875761 1130.85471825 -186.09339033 1131.08635574 -192 1130 C-196.64877177 1127.3872906 -199.96225327 1123.94881349 -202 1119 C-203.01703001 1110.57317989 -199.55692472 1104.05747418 -194.5 1097.4375 C-169.57090726 1070.55194682 -125.87961832 1067.4941643 -91.93139648 1063.92553711 C-82.90443492 1062.95631439 -73.98268151 1061.76442987 -65.0703125 1060.015625 C-63.84494278 1059.77869934 -63.84494278 1059.77869934 -62.59481812 1059.5369873 C-55.75547389 1058.12808043 -49.94445859 1055.69173149 -44 1052 C-43.04351562 1051.41347656 -42.08703125 1050.82695313 -41.1015625 1050.22265625 C-15.34305894 1033.69259294 4.52351187 1013.31314196 11.6875 982.9375 C20.40566385 942.87888888 21.33066115 900.82552716 23 860 C23.0279364 859.31947571 23.0558728 858.63895142 23.08465576 857.93780518 C24.73501919 817.26075013 25.06793029 776.52836616 25.5 735.82421875 C25.51027497 734.85882337 25.52054994 733.89342799 25.53113627 732.8987782 C25.71314337 715.77619716 25.88875884 698.65355049 26.0625 681.53088379 C26.1754836 670.40147102 26.28995057 659.2720773 26.40851593 648.14272243 C26.45895184 643.39656804 26.50825098 638.65040878 26.55444336 633.90421104 C26.7731178 611.47644809 27.17311507 589.06444745 27.83987379 566.64536041 C28.0810213 558.43019531 28.21741975 550.21836793 28.25 542 C28.2603125 541.3076123 28.270625 540.61522461 28.28125 539.90185547 C28.49496359 525.37267037 27.00287862 510.95237269 16.92578125 499.6796875 C7.84966115 491.09459658 -2.43489148 488.11824997 -14.84375 487.96484375 C-20.24502881 488.29835645 -23.78013569 489.39767681 -28 493 C-35.08496677 501.25986076 -34.73236599 513.67932598 -34.15966797 524.00927734 C-33.43974382 532.98521235 -30.31615566 539.54651437 -25.65234375 547.12890625 C-21.33807989 554.62532218 -20.04895795 562.42741259 -21 571 C-22.64845312 576.49484374 -25.64197304 581.22801579 -30 585 C-32.19140625 585.6953125 -32.19140625 585.6953125 -34 586 C-33.54177532 582.53058454 -33.10868317 579.32604951 -32 576 C-30.84137881 567.18567931 -33.02255992 562.12678921 -38 555 C-48.09657557 539.40969949 -50.77482074 524.46198762 -46.87109375 506.12890625 C-45.73739076 501.37000467 -44.42139499 496.68045064 -43 492 C-61.73137176 498.09984153 -78.58873677 507.88919501 -87.8125 526 C-91.77053289 533.97040948 -93.37791547 541.02779476 -93.3125 549.875 C-93.30758545 550.66293945 -93.3026709 551.45087891 -93.29760742 552.26269531 C-93.14856986 559.68247299 -92.1756144 566.30909443 -87.8125 572.5 C-84.34979244 575.57796228 -81.60390641 576.71960491 -77 577 C-72.90148106 576.29064095 -71.42586838 575.47069663 -68.625 572.375 C-68.08875 571.59125 -67.5525 570.8075 -67 570 C-66.01 570.33 -65.02 570.66 -64 571 C-64.11380839 575.65579788 -64.27672611 579.68129506 -67.25 583.4375 C-71.81202077 587.6884739 -76.77041963 589.03467299 -83 589 C-89.28921313 588.08409517 -92.91371841 584.52748775 -97.04296875 579.9375 C-99.95405237 575.5679693 -101.92911336 570.81292809 -104 566 C-104.35191406 566.6391333 -104.70382812 567.2782666 -105.06640625 567.93676758 C-129.11962534 611.47042504 -129.11962534 611.47042504 -146.5625 617.875 C-152.75587889 619.65665694 -158.16112579 619.54614021 -164.13671875 617.12109375 C-168.32139438 614.60327005 -170.49463905 610.51608284 -172 606 C-172.09435979 604.00179272 -172.12990301 602.00042797 -172.125 600 C-172.12757813 598.948125 -172.13015625 597.89625 -172.1328125 596.8125 C-172 594 -172 594 -171 591 C-170.01 591 -169.02 591 -168 591 C-167.61328125 591.98742187 -167.2265625 592.97484375 -166.828125 593.9921875 C-166.30279617 595.28674783 -165.776715 596.58100304 -165.25 597.875 C-164.99734375 598.52597656 -164.7446875 599.17695312 -164.484375 599.84765625 C-163.34190097 602.61815577 -162.47875987 604.64757954 -160.03125 606.44921875 C-155.78021019 607.60190455 -151.84092576 606.83082979 -147.9140625 605.05859375 C-132.41975697 596.06477272 -125.76118939 575.75726247 -119.25683594 560.04037476 C-104.6530882 524.84340541 -89.27882108 492.84504955 -52.03222656 477.27636719 C-32.62099229 469.59955517 -9.80926407 467.06163894 10 475 C16.43207027 477.9236683 21.66502695 481.4238475 27 486 C22.5332388 476.42497465 18.03043313 467.99047127 11 460 C10.37480469 459.17757813 9.74960937 458.35515625 9.10546875 457.5078125 C-2.13789698 444.11590007 -20.84034905 437.45429378 -37.75 435.25 C-46.3876297 434.64489879 -54.66837679 434.95291163 -63.1875 436.5 C-64.62283081 436.75523437 -64.62283081 436.75523437 -66.0871582 437.015625 C-75.032637 438.68370074 -83.86075219 440.80083522 -92.6875 443 C-93.36187103 443.16717529 -94.03624207 443.33435059 -94.73104858 443.5065918 C-125.32579548 451.13604167 -146.25660472 465.35143275 -165.765625 490.19140625 C-168.58295257 493.7327673 -171.53132835 497.1477651 -174.5 500.5625 C-175.05945313 501.20614502 -175.61890625 501.84979004 -176.1953125 502.51293945 C-180.056231 506.94200661 -183.95304851 511.33650443 -187.90625 515.68359375 C-189.31769882 517.24514068 -190.71332276 518.82111967 -192.09375 520.41015625 C-200.29034451 529.77981411 -209.35895391 538.12088739 -219.1875 545.75 C-219.74018555 546.18054688 -220.29287109 546.61109375 -220.86230469 547.0546875 C-224.74631364 550 -224.74631364 550 -227 550 C-230.81122203 558.98359479 -231.30983499 566.44935535 -231.25 576.1875 C-231.25773437 577.45787109 -231.26546875 578.72824219 -231.2734375 580.03710938 C-231.26957031 581.86532227 -231.26957031 581.86532227 -231.265625 583.73046875 C-231.26224121 585.39178833 -231.26224121 585.39178833 -231.25878906 587.08666992 C-231.00356651 589.95984988 -230.55540768 591.59982108 -229 594 C-225.77002661 596.30712385 -222.88595382 596.54403353 -219 596 C-216.80158292 594.504868 -214.9762244 592.79656763 -213 591 C-212.34 591 -211.68 591 -211 591 C-210.6875 594.1875 -210.6875 594.1875 -211 598 C-213.646453 601.203601 -215.85424291 603.75670784 -220.1015625 604.23828125 C-227.65612638 604.46047431 -232.36347012 603.09038436 -238.1328125 598.1875 C-245.24505968 591.04900837 -248.12060733 582.30447875 -248.375 572.3125 C-248.28977275 567.10511525 -247.07646271 562.07572607 -246 557 C-246.82854492 557.03927612 -246.82854492 557.03927612 -247.67382812 557.0793457 C-266.87482775 557.86480499 -280.16559505 553.94947013 -297.02514648 544.92260742 C-306.09962596 540.13253264 -315.68919806 536.19573546 -326 539 C-330.93304589 541.21518468 -335.32999111 544.21623407 -338 549 C-338.67545454 553.1202727 -338.88147325 555.4391188 -336.82421875 559.08203125 C-335.29876833 561.14355727 -333.69638069 563.07717037 -332 565 C-327 570.83979328 -327 570.83979328 -327 573 C-335.09101856 572.81762048 -340.60332982 571.16173361 -346.53515625 565.546875 C-351.41748138 560.13788506 -352.42630356 554.70172767 -352.24609375 547.65234375 C-351.59888566 540.67687881 -349.68029585 534.62911064 -344.81640625 529.47265625 C-340.81622737 526.22950047 -336.17132589 524 -331 524 C-331.33773437 523.31035156 -331.67546875 522.62070312 -332.0234375 521.91015625 C-337.86063911 509.61154361 -340.34657832 497.30639621 -336 484 C-334.5 480.9375 -334.5 480.9375 -333 479 C-332.34 479 -331.68 479 -331 479 C-330.84442627 479.60360352 -330.68885254 480.20720703 -330.52856445 480.82910156 C-323.89229326 507.48240258 -323.89229326 507.48240258 -304.75 526.25 C-290.92710591 534.35641686 -277.7848806 537.14676321 -262 538 C-262.845625 537.26136719 -263.69125 536.52273438 -264.5625 535.76171875 C-277.2333262 524.51205959 -288.07640812 511.52906963 -290 494 C-290.38818844 486.74005015 -290.24677901 479.73147932 -289 472.5625 C-284.90389213 448.33947358 -290.09123197 420.1848045 -304.16015625 399.8828125 C-305.57196723 397.96553833 -307.00368475 396.06265454 -308.4609375 394.1796875 C-310 392 -310 392 -310 390 C-303.3122986 390.73910425 -299.60013041 395.47418511 -295 400 C-294.43925781 400.54785156 -293.87851562 401.09570312 -293.30078125 401.66015625 C-279.88071417 416.03617332 -274.68182944 436.28764331 -271 455 C-270.46632813 454.7834375 -269.93265625 454.566875 -269.3828125 454.34375 C-263.67426306 452.21045125 -258.07154366 450.6063712 -252 452 C-247.7605218 454.65409737 -244.76081737 457.85877394 -242 462 C-241.875 465.1875 -241.875 465.1875 -242 468 C-244.76857234 467.51142841 -247.19294038 466.92282385 -249.8125 465.875 C-255.17341797 464.40337546 -259.85064698 465.19106017 -264.75 467.625 C-269.67331142 470.8100124 -271.45363049 474.67014452 -272.75390625 480.21484375 C-275.04552165 493.48891784 -272.24799745 502.44770786 -265.3125 513.75 C-259.15293302 519.74309219 -251.63542378 523.63824576 -243 524 C-223.3819206 523.1656211 -208.77389924 514.79607943 -195 501 C-191.85206248 497.44533781 -188.92597138 493.73821344 -186 490 C-185.05382463 488.81761488 -184.10581885 487.63669282 -183.15625 486.45703125 C-178.59716762 480.7906055 -174.06964443 475.10138619 -169.59667969 469.36669922 C-162.64586665 460.46744275 -156.1438986 452.7188657 -147 446 C-153.22742896 443.40394568 -159.52407411 441.09544997 -165.9059906 438.90812683 C-211.86450495 423.13907778 -241.26147642 400.28000188 -262.99951172 356.09570312 C-272.64335375 335.76456933 -276.66992359 313.75302845 -279.48071289 291.57519531 C-281.96518694 273.01579277 -288.58268851 259.23343119 -303 247 C-308.95578616 242.68514702 -315.40583053 239.23301582 -322 236 C-322 235.34 -322 234.68 -322 234 C-315.96620515 231.90752008 -309.25778025 234.64170726 -303.6015625 237 C-285.25535235 246.53738001 -273.40844797 263.42644617 -267.23803711 282.75219727 C-265.25391347 289.3166661 -263.9478542 296.03039033 -262.60308838 302.7487793 C-259.33396935 318.9971314 -255.28412186 334.62525525 -249 350 C-248.97421875 349.16339844 -248.9484375 348.32679688 -248.921875 347.46484375 C-248.08371709 330.26355762 -242.0594528 315.8767211 -235.37304688 300.22314453 C-219.68186597 265.01536393 -219.68186597 265.01536393 -222.80859375 227.62890625 C-224.49166032 223.91512328 -225.49237487 222.15240633 -229 220 C-231.8106011 219.38303878 -234.19340041 219.35100943 -237 220 C-239.7700997 221.96509909 -239.7700997 221.96509909 -242 224 C-242.99 223.67 -243.98 223.34 -245 223 C-245.65658115 218.62279231 -244.82978232 216.29549165 -242.3125 212.8125 C-238.84571764 208.57622156 -236.2490619 206.29704591 -230.6875 205.5625 C-223.96954643 206.35954534 -219.63714379 208.83479438 -215.25 214 C-205.21329626 227.86348348 -205.29137881 248.08534635 -207.29882812 264.43359375 C-207.9391611 268.03420955 -208.84185331 271.53245367 -210 275 C-208.96101562 274.95359375 -207.92203125 274.9071875 -206.8515625 274.859375 C-196.95588923 274.54931849 -188.9197769 275.13281691 -180.6875 281.25 C-174.12743224 287.96262747 -171.02356166 295.07594528 -170.625 304.5 C-170.75082555 311.05191633 -172.86683722 314.40020786 -177 319.4375 C-179 321 -179 321 -183 321 C-182.89300781 320.10539062 -182.78601563 319.21078125 -182.67578125 318.2890625 C-181.76758118 309.12893703 -181.41942676 301.40685937 -187.4375 294 C-193.12182711 289.56345201 -197.91364196 289.24109935 -205 290 C-212.12660239 291.87277558 -216.83186941 297.1735809 -221 303 C-230.33967975 319.10289612 -234.8612456 341.5641872 -230.9375 359.875 C-227.91772706 370.6923087 -222.48028443 380.63782941 -215 389 C-214.35675781 389.73605469 -213.71351563 390.47210937 -213.05078125 391.23046875 C-201.12288126 404.04028371 -184.77255532 411.73538721 -168 416 C-167.01 416 -166.02 416 -165 416 C-165.34933594 415.25234375 -165.69867188 414.5046875 -166.05859375 413.734375 C-166.74115234 412.25710938 -166.74115234 412.25710938 -167.4375 410.75 C-167.88996094 409.77546875 -168.34242188 408.8009375 -168.80859375 407.796875 C-172.80895083 398.40587281 -172.15504339 386.75276887 -168.60546875 377.30859375 C-165.72725274 371.37708776 -162.20595496 365.84502376 -158.65625 360.296875 C-146.93793431 341.7465404 -146.28716638 322.37516137 -150.47753906 301.25341797 C-152.04574284 294.48962319 -154.83953794 288.16071637 -158 282 C-155 281 -155 281 -152.94921875 281.93359375 C-142.1878228 289.08927154 -135.96676149 299.74022467 -132.6875 312.25 C-130.7165507 323.30357135 -128.82305678 338.64611357 -134 349 C-133.443125 349.226875 -132.88625 349.45375 -132.3125 349.6875 C-126.65816747 352.89671576 -122.9527909 357.86568944 -121 364 C-120.51228121 368.56558979 -120.54394667 372.63184002 -122 377 C-122.99 377 -123.98 377 -125 377 C-126.33333333 375 -127.66666667 373 -129 371 C-132.99471143 367.36844416 -137.25226313 367.55258968 -142.41015625 367.71875 C-145.72570881 368.07881001 -147.52199141 368.74726492 -150 371 C-154.87957988 377.09947484 -155.71717632 383.34158147 -155 391 C-153.12732635 401.21708715 -150.05397499 411.32842875 -141.51953125 417.9140625 C-126.60798346 427.33867712 -111.21576346 429.2439375 -94.06103516 425.46240234 C-90.32863331 424.57986071 -86.60584671 423.66387393 -82.88769531 422.72314453 C-78.00273505 421.49983947 -73.09575263 420.37542467 -68.1875 419.25 C-67.29909424 419.03964111 -66.41068848 418.82928223 -65.49536133 418.61254883 C-37.10615702 412.03761234 -10.36362128 417.66822344 14.23583984 432.85205078 C18.42707953 435.57931469 22.22166201 438.73847719 26 442 C27.66231175 443.33875883 29.32791901 444.67346289 31 446 C27.73500639 421.7703106 20.78676844 400.33946805 3 383 C2.35546875 382.34644531 1.7109375 381.69289063 1.046875 381.01953125 C-12.16812117 368.46528489 -30.98398759 361.20966 -47 353 C-57.07688131 347.83433986 -66.73240067 342.55334201 -76 336 C-77.15348789 335.19768954 -78.30714086 334.39561639 -79.4609375 333.59375 C-115.67652044 308.25121719 -139.62209375 277.07957056 -148 233 C-148.71191438 228.32258908 -149.29353809 223.63264521 -149.875 218.9375 C-153.29395176 193.18007921 -159.75650566 169.9527534 -173.05102539 147.45727539 C-176.12415266 142.15358029 -177.72141445 138.15031174 -178 132 C-171.66122721 133.00305855 -168.33992266 138.79350804 -164.76855469 143.6875 C-148.00334785 167.49486334 -137.44774497 191.84679208 -132.82006836 220.43994141 C-130.5854673 234.07324696 -127.32976362 246.11117378 -120 258 C-119.55011719 257.06542969 -119.10023438 256.13085938 -118.63671875 255.16796875 C-115.25085116 248.22868734 -111.73418388 241.45808291 -107.75463867 234.83764648 C-95.87187952 215.06121087 -91.32739194 194.91180466 -96.97265625 172.1640625 C-98.84449357 164.8460215 -100.91977481 157.5830719 -103.06030273 150.33959961 C-108.07184543 132.52902738 -104.00143617 115.98718297 -95.68359375 99.92578125 C-92.87367911 95.04265813 -92.87367911 95.04265813 -91 93 C-90.01 93 -89.02 93 -88 93 C-87.07065115 96.69382048 -87.03604436 99.38812221 -87.77734375 103.11328125 C-88.05372681 104.5969519 -88.05372681 104.5969519 -88.33569336 106.1105957 C-88.53428955 107.16722412 -88.73288574 108.22385254 -88.9375 109.3125 C-91.95774309 126.75469167 -94.98006824 148.26112488 -85 164 C-80.1956215 162.99263031 -75.54598149 161.88662131 -70.875 160.375 C-62.91943437 157.97977594 -55.62196308 158.7274699 -48 162 C-38.42985469 168.3122235 -34.01269404 176.56980472 -31.625 187.5625 C-30.46325325 195.30747831 -30.87417067 202.18341241 -35 209 C-35.99 209 -36.98 209 -38 209 C-38.10957031 207.865625 -38.21914063 206.73125 -38.33203125 205.5625 C-38.49163101 204.04160817 -38.6518188 202.52077796 -38.8125 201 C-38.91788086 199.88431641 -38.91788086 199.88431641 -39.02539062 198.74609375 C-39.87918619 190.89117457 -41.62251964 184.19097239 -48 179 C-53.68279401 174.87997434 -60.2754308 175.27013822 -67 176 C-71.6732239 177.28441092 -74.25819237 178.87532392 -76.9375 182.9375 C-79.30686531 189.76684708 -79.26220076 196.47306817 -79.34179688 203.63671875 C-79.72961482 215.99277877 -84.46116818 226.60432832 -89.9375 237.5 C-101.85021726 260.58637781 -101.85021726 260.58637781 -102.265625 285.875 C-91.42466602 316.04114671 -50.61805431 332.43975626 -24.41503906 345.95922852 C-7.08274788 354.90463114 9.20255591 364.54937982 25.18505859 375.73828125 C26.77678954 376.84482759 28.38701257 377.92467504 30 379 C25.69516338 318.97204337 25.69516338 318.97204337 -3.5625 268.4375 C-9.60547997 263.47730654 -14.8835492 261.40263542 -22.703125 261.734375 C-26.05675758 262.12221006 -27.57870391 262.57870391 -30 265 C-34.90562462 273.10929785 -36.0794633 283.58515662 -34.5234375 292.83203125 C-33.81573745 295.30120451 -32.97958902 297.6260766 -32 300 C-31.6390625 300.88816406 -31.278125 301.77632813 -30.90625 302.69140625 C-30.21267444 304.39314344 -29.50235054 306.0882276 -28.76953125 307.7734375 C-28 310 -28 310 -28 314 C-32.84482255 313.28224851 -35.67997699 310.63258018 -38.69921875 306.8984375 C-47.09169577 295.42932574 -50.88370062 285.17193955 -50 271 C-48.40720599 261.47023244 -43.43220951 253.19232599 -35.83203125 247.21484375 C-28.43486233 242.30968483 -19.31562963 241.062313 -10.65625 242.58984375 C-3.12920082 244.6386784 2.30166199 247.73044782 8 253 C8.86818359 253.73283203 8.86818359 253.73283203 9.75390625 254.48046875 C20.16202567 263.87433988 26.57084873 277.32598794 32 290 C34.02407644 249.59343706 17.31003963 208.24582784 -6 176 C-6.51788086 175.27925293 -7.03576172 174.55850586 -7.56933594 173.81591797 C-13.86411628 165.08664143 -20.34643162 156.52066325 -27 148.0625 C-47.54202907 121.82733659 -63.45578842 97.77870807 -63.1953125 63.48828125 C-63.19157297 62.02426855 -63.18873045 60.56025331 -63.18673706 59.09623718 C-63.17917447 55.28061771 -63.15959129 51.46515541 -63.1373291 47.64959717 C-63.11670988 43.7410291 -63.1077013 39.83243514 -63.09765625 35.92382812 C-63.07633683 28.28248116 -63.04229242 20.64126277 -63 13 C-62.34 13 -61.68 13 -61 13 C-51.37879148 28.9261707 -49.38752234 48.47874743 -48.66601562 66.70019531 C-48.19204381 78.66127652 -47.23183335 89.95180911 -40 100 C-39.34 100.33 -38.68 100.66 -38 101 C-37.690625 99.7315625 -37.690625 99.7315625 -37.375 98.4375 C-35.11259036 92.78147591 -31.94644838 89.13848867 -26.6875 86.0625 C-19.4166303 83.96750365 -12.70512873 84.3107152 -6 88 C-2.18839498 91.23157817 0.77142761 94.23884555 1.1953125 99.359375 C1.16050781 100.54273438 1.16050781 100.54273438 1.125 101.75 C1.10695313 102.54921875 1.08890625 103.3484375 1.0703125 104.171875 C1.04710937 104.77515625 1.02390625 105.3784375 1 106 C-0.32 106 -1.64 106 -3 106 C-3.8353125 104.5459375 -3.8353125 104.5459375 -4.6875 103.0625 C-7.18699385 99.7523595 -7.57991111 99.4689665 -11.4375 98.875 C-14.84027225 98.71269672 -15.87948598 98.93076854 -18.9375 100.6875 C-23.61280419 105.92950772 -23.42615536 110.60219252 -23.3125 117.45703125 C-22.26623945 129.31901024 -13.16058224 137.86185638 -5.73193359 146.45288086 C-0.80067672 152.177335 3.86849576 158.08081325 8.49023438 164.05615234 C10.14529442 166.18706891 11.81403536 168.30682307 13.484375 170.42578125 C20.2987362 179.09210998 26.8756866 187.82973179 33 197 C33.81837129 181.27029437 34.15142293 165.53744665 34.23217773 149.78817749 C34.24392739 147.82640728 34.26089619 145.8646604 34.28344727 143.90298462 C34.45155855 128.39223668 33.22153277 114.14132637 28.0625 99.375 C27.62514526 98.09689453 27.62514526 98.09689453 27.17895508 96.79296875 C21.20453436 79.69994766 14.5120017 62.77181715 6.4375 46.5625 C-0.15017321 33.15201646 -4.9231793 14.76953789 0 0 Z " fill="#000000" transform="translate(399,206)"/>
<path d="M0 0 C0.66 0 1.32 0 2 0 C2.67444768 4.040408 3.33817587 8.08250666 4 12.125 C4.19078125 13.26710938 4.3815625 14.40921875 4.578125 15.5859375 C4.75859375 16.69453125 4.9390625 17.803125 5.125 18.9453125 C5.37636719 20.46922607 5.37636719 20.46922607 5.6328125 22.02392578 C6.00586777 25.0475586 6.0634842 27.95672597 6 31 C6.51949219 30.73445313 7.03898438 30.46890625 7.57421875 30.1953125 C11.33020694 28.29301903 15.05225879 26.48040295 19 25 C17.45730076 29.72065967 15.92205381 34.41664092 14 39 C14.82757812 39.11214844 15.65515625 39.22429687 16.5078125 39.33984375 C20.4505978 40.08518012 24.0908 41.25343082 27.875 42.5625 C28.90753906 42.91344727 28.90753906 42.91344727 29.9609375 43.27148438 C31.64203645 43.84352499 33.32122163 44.42118456 35 45 C35 45.99 35 46.98 35 48 C32.06497405 49.00736628 29.12660539 50.00460504 26.1875 51 C25.35412109 51.28617188 24.52074219 51.57234375 23.66210938 51.8671875 C22.85966797 52.13789063 22.05722656 52.40859375 21.23046875 52.6875 C20.12288208 53.06455078 20.12288208 53.06455078 18.99291992 53.44921875 C17 54 17 54 14 54 C14.54140625 55.26457031 14.54140625 55.26457031 15.09375 56.5546875 C15.5578125 57.65039062 16.021875 58.74609375 16.5 59.875 C16.9640625 60.96554688 17.428125 62.05609375 17.90625 63.1796875 C19 66 19 66 19 68 C14.50202887 66.31326082 10.27113698 64.18326108 6 62 C5.96261719 62.64582031 5.92523437 63.29164063 5.88671875 63.95703125 C5.20436309 73.73746244 3.60692731 83.3382232 2 93 C1.01 92.67 0.02 92.34 -1 92 C-3.475 77.15 -3.475 77.15 -6 62 C-10.95 64.97 -10.95 64.97 -16 68 C-16.66 68 -17.32 68 -18 68 C-16.45730076 63.27934033 -14.92205381 58.58335908 -13 54 C-14.2375 53.7525 -15.475 53.505 -16.75 53.25 C-22.64826858 51.95181648 -28.30344763 49.98560032 -34 48 C-34 47.01 -34 46.02 -34 45 C-31.06497405 43.99263372 -28.12660539 42.99539496 -25.1875 42 C-24.35412109 41.71382812 -23.52074219 41.42765625 -22.66210938 41.1328125 C-21.85966797 40.86210937 -21.05722656 40.59140625 -20.23046875 40.3125 C-19.49207764 40.06113281 -18.75368652 39.80976563 -17.99291992 39.55078125 C-16 39 -16 39 -13 39 C-13.3609375 38.15695313 -13.721875 37.31390625 -14.09375 36.4453125 C-14.5578125 35.34960938 -15.021875 34.25390625 -15.5 33.125 C-16.19609375 31.48917969 -16.19609375 31.48917969 -16.90625 29.8203125 C-18 27 -18 27 -18 25 C-13.68955489 26.56743458 -9.95532304 28.70786933 -6 31 C-5.85377197 30.09644775 -5.70754395 29.19289551 -5.55688477 28.26196289 C-5.01405768 24.91994817 -4.46762321 21.57856563 -3.91870117 18.23754883 C-3.68156591 16.78954469 -3.4458845 15.34130169 -3.21166992 13.89282227 C-2.87537609 11.81462593 -2.53391681 9.73733584 -2.19140625 7.66015625 C-1.98717041 6.40855713 -1.78293457 5.15695801 -1.57250977 3.86743164 C-1 1 -1 1 0 0 Z " fill="#000000" transform="translate(554,97)"/>
<path d="M0 0 C0.66 0 1.32 0 2 0 C2.71541165 3.93210031 3.42739889 7.86480373 4.13623047 11.7980957 C4.37780425 13.13583076 4.62031006 14.47339786 4.86376953 15.81079102 C5.21372037 17.73409226 5.56003308 19.65805435 5.90625 21.58203125 C6.11572266 22.73936768 6.32519531 23.8967041 6.54101562 25.08911133 C7 28 7 28 7 31 C7.69867188 30.566875 8.39734375 30.13375 9.1171875 29.6875 C10.02726562 29.130625 10.93734375 28.57375 11.875 28 C12.77992188 27.443125 13.68484375 26.88625 14.6171875 26.3125 C17 25 17 25 19 25 C18.33501617 29.38889325 16.81242323 32.9811485 15 37 C21.9434807 39.83161469 28.93893523 42.47627343 36 45 C36 45.66 36 46.32 36 47 C29.07 49.64 22.14 52.28 15 55 C16.32 58.3 17.64 61.6 19 65 C19 65.66 19 66.32 19 67 C14.80639551 66.32902328 11.59665648 64.1441606 8 62 C6.29496318 68.45149068 5.03877724 74.93112404 3.875 81.5 C3.69324219 82.51320313 3.51148438 83.52640625 3.32421875 84.5703125 C2.88038253 87.04645144 2.43903379 89.52300587 2 92 C1.34 92 0.68 92 0 92 C-0.14622803 91.16227051 -0.29245605 90.32454102 -0.44311523 89.46142578 C-0.98667643 86.35616267 -1.53303318 83.25140831 -2.08129883 80.14697266 C-2.31810066 78.80276927 -2.55378425 77.45836839 -2.78833008 76.11376953 C-3.12548086 74.18210225 -3.46697611 72.25119482 -3.80859375 70.3203125 C-4.11494751 68.57645264 -4.11494751 68.57645264 -4.42749023 66.79736328 C-4.86189856 64.06054011 -4.86189856 64.06054011 -6 62 C-6.54269531 62.3609375 -7.08539063 62.721875 -7.64453125 63.09375 C-8.71767578 63.78984375 -8.71767578 63.78984375 -9.8125 64.5 C-10.87404297 65.19609375 -10.87404297 65.19609375 -11.95703125 65.90625 C-14 67 -14 67 -17 67 C-15 61 -15 61 -13 55 C-19.93 52.36 -26.86 49.72 -34 47 C-34 46.34 -34 45.68 -34 45 C-27.4 42.69 -20.8 40.38 -14 38 C-13.80304035 34.82492476 -13.80304035 34.82492476 -15.5 31.5 C-17 28 -17 28 -17 25 C-12.68955489 26.56743458 -8.95532304 28.70786933 -5 31 C-4.87939209 30.12432373 -4.87939209 30.12432373 -4.75634766 29.23095703 C-4.38232995 26.52853241 -4.00368535 23.82677435 -3.625 21.125 C-3.49867188 20.2071875 -3.37234375 19.289375 -3.2421875 18.34375 C-2.37387462 12.17872855 -1.28967197 6.09076144 0 0 Z " fill="#000000" transform="translate(449,0)"/>
<path d="M0 0 C0.66 0.33 1.32 0.66 2 1 C2.68603516 3.86743164 2.68603516 3.86743164 3.2890625 7.66015625 C3.39721283 8.32462265 3.50536316 8.98908905 3.61679077 9.6736908 C3.96123188 11.80204679 4.29323174 13.93213545 4.625 16.0625 C4.85595581 17.50338608 5.08771631 18.94414343 5.3203125 20.38476562 C5.88956269 23.92172933 6.44766943 27.46035007 7 31 C7.69867188 30.566875 8.39734375 30.13375 9.1171875 29.6875 C10.02726562 29.130625 10.93734375 28.57375 11.875 28 C12.77992188 27.443125 13.68484375 26.88625 14.6171875 26.3125 C17 25 17 25 19 25 C17.45730076 29.72065967 15.92205381 34.41664092 14 39 C15.2375 39.2475 16.475 39.495 17.75 39.75 C23.64826858 41.04818352 29.30344763 43.01439968 35 45 C35 45.99 35 46.98 35 48 C32.06497405 49.00736628 29.12660539 50.00460504 26.1875 51 C25.35412109 51.28617188 24.52074219 51.57234375 23.66210938 51.8671875 C22.85966797 52.13789063 22.05722656 52.40859375 21.23046875 52.6875 C20.12288208 53.06455078 20.12288208 53.06455078 18.99291992 53.44921875 C17 54 17 54 14 54 C14.54140625 55.26457031 14.54140625 55.26457031 15.09375 56.5546875 C15.5578125 57.65039062 16.021875 58.74609375 16.5 59.875 C16.9640625 60.96554688 17.428125 62.05609375 17.90625 63.1796875 C19 66 19 66 19 68 C14.58282601 66.39375491 11.22743482 64.41567704 7 62 C5.35 71.9 3.7 81.8 2 92 C1.01 92 0.02 92 -1 92 C-1.67476789 88.1263657 -2.33837032 84.25089817 -3 80.375 C-3.19078125 79.28058594 -3.3815625 78.18617188 -3.578125 77.05859375 C-3.84882813 75.46337891 -3.84882813 75.46337891 -4.125 73.8359375 C-4.29257812 72.86188965 -4.46015625 71.8878418 -4.6328125 70.88427734 C-5.01375517 67.89195244 -5.06252962 65.01314583 -5 62 C-5.77923828 62.39832031 -5.77923828 62.39832031 -6.57421875 62.8046875 C-10.33020694 64.70698097 -14.05225879 66.51959705 -18 68 C-16.45730076 63.27934033 -14.92205381 58.58335908 -13 54 C-14.2375 53.7525 -15.475 53.505 -16.75 53.25 C-22.64826858 51.95181648 -28.30344763 49.98560032 -34 48 C-34 47.01 -34 46.02 -34 45 C-31.06497405 43.99263372 -28.12660539 42.99539496 -25.1875 42 C-24.35412109 41.71382812 -23.52074219 41.42765625 -22.66210938 41.1328125 C-21.85966797 40.86210937 -21.05722656 40.59140625 -20.23046875 40.3125 C-19.49207764 40.06113281 -18.75368652 39.80976563 -17.99291992 39.55078125 C-16 39 -16 39 -13 39 C-13.3609375 38.15695313 -13.721875 37.31390625 -14.09375 36.4453125 C-14.5578125 35.34960938 -15.021875 34.25390625 -15.5 33.125 C-16.19609375 31.48917969 -16.19609375 31.48917969 -16.90625 29.8203125 C-18 27 -18 27 -18 25 C-13.50202887 26.68673918 -9.27113698 28.81673892 -5 31 C-4.96261719 30.34257813 -4.92523438 29.68515625 -4.88671875 29.0078125 C-4.42848811 22.37694558 -3.5826116 15.86552651 -2.5 9.3125 C-2.36940186 8.51021973 -2.23880371 7.70793945 -2.10424805 6.88134766 C-1.12602988 1.12602988 -1.12602988 1.12602988 0 0 Z " fill="#000000" transform="translate(345,97)"/>
<path d="M0 0 C0.66 0 1.32 0 2 0 C2.11069824 0.58378418 2.22139648 1.16756836 2.33544922 1.76904297 C2.84812467 4.47112534 3.36155914 7.17306297 3.875 9.875 C4.04902344 10.7928125 4.22304688 11.710625 4.40234375 12.65625 C5.56635704 18.77809766 6.76640483 24.89179459 8 31 C8.62648438 30.566875 9.25296875 30.13375 9.8984375 29.6875 C10.71570313 29.130625 11.53296875 28.57375 12.375 28 C13.18710937 27.443125 13.99921875 26.88625 14.8359375 26.3125 C17 25 17 25 19 25 C18.33501617 29.38889325 16.81242323 32.9811485 15 37 C21.9434807 39.83161469 28.93893523 42.47627343 36 45 C35 48 35 48 33.05053711 48.9831543 C32.2178833 49.26070557 31.38522949 49.53825684 30.52734375 49.82421875 C29.62822266 50.13037109 28.72910156 50.43652344 27.80273438 50.75195312 C26.38444336 51.21504883 26.38444336 51.21504883 24.9375 51.6875 C23.98810547 52.00783203 23.03871094 52.32816406 22.06054688 52.65820312 C19.71037143 53.44946823 17.35704662 54.22949395 15 55 C15.30035156 55.60328125 15.60070312 56.2065625 15.91015625 56.828125 C16.29042969 57.62734375 16.67070313 58.4265625 17.0625 59.25 C17.44535156 60.03890625 17.82820312 60.8278125 18.22265625 61.640625 C19 64 19 64 18 68 C14.7 66.02 11.4 64.04 8 62 C7.73445312 63.39992188 7.46890625 64.79984375 7.1953125 66.2421875 C6.8385668 68.11979644 6.48179454 69.99740034 6.125 71.875 C5.95097656 72.7928125 5.77695312 73.710625 5.59765625 74.65625 C4.43364296 80.77809766 3.23359517 86.89179459 2 93 C1.01 92.505 1.01 92.505 0 92 C-0.68603516 89.22436523 -0.68603516 89.22436523 -1.2890625 85.55859375 C-1.39721283 84.91632339 -1.50536316 84.27405304 -1.61679077 83.61231995 C-1.96119254 81.55533106 -2.29321107 79.49655717 -2.625 77.4375 C-2.8559597 76.04478712 -3.08772028 74.6522068 -3.3203125 73.25976562 C-3.88951842 69.84133467 -4.44763401 66.42119713 -5 63 C-8.41321235 63 -9.39472885 63.66867466 -12.1875 65.5 C-13.26064453 66.19609375 -13.26064453 66.19609375 -14.35546875 66.90625 C-14.89816406 67.2671875 -15.44085937 67.628125 -16 68 C-17.305239 64.08428299 -16.32239848 62.96107003 -14.5625 59.3125 C-14.08941406 58.31863281 -13.61632812 57.32476562 -13.12890625 56.30078125 C-12.75636719 55.54152344 -12.38382813 54.78226562 -12 54 C-13.2375 53.7525 -14.475 53.505 -15.75 53.25 C-19.72513042 52.3574946 -23.61085277 51.27669549 -27.5 50.0625 C-29.03140625 49.58490234 -29.03140625 49.58490234 -30.59375 49.09765625 C-31.3878125 48.73542969 -32.181875 48.37320313 -33 48 C-33.495 46.515 -33.495 46.515 -34 45 C-27.07 42.69 -20.14 40.38 -13 38 C-13.66 36.22625 -14.32 34.4525 -15 32.625 C-17 27.25 -17 27.25 -17 25 C-14.25323037 26.02022872 -11.82625778 27.10505344 -9.3125 28.625 C-7.16188894 30.17035846 -7.16188894 30.17035846 -5 30 C-3.35 20.1 -1.7 10.2 0 0 Z " fill="#000000" transform="translate(864,386)"/>
<path d="M0 0 C0.66 0 1.32 0 2 0 C3.65 9.57 5.3 19.14 7 29 C10.18490007 29.2773501 10.18490007 29.2773501 13 27 C16 25 16 25 19 25 C18.54554036 26.41791408 18.08625056 27.83428046 17.625 29.25 C17.24214844 30.43335938 17.24214844 30.43335938 16.8515625 31.640625 C16.04826333 33.86627958 15.10288338 35.90931672 14 38 C15.8253125 38.3403125 15.8253125 38.3403125 17.6875 38.6875 C24.04403536 40.07862675 29.98401914 42.56385319 36 45 C36 45.66 36 46.32 36 47 C29.4 49.31 22.8 51.62 16 54 C16 57.58063513 16.34407525 59.47487986 17.5 62.75 C17.7784375 63.54921875 18.056875 64.3484375 18.34375 65.171875 C18.5603125 65.77515625 18.776875 66.3784375 19 67 C15.04800013 65.83236367 12.2274473 64.53585145 9 62 C8.34 62 7.68 62 7 62 C5.35 71.9 3.7 81.8 2 92 C1.34 92 0.68 92 0 92 C-0.11069824 91.41621582 -0.22139648 90.83243164 -0.33544922 90.23095703 C-0.84812467 87.52887466 -1.36155914 84.82693703 -1.875 82.125 C-2.04902344 81.2071875 -2.22304688 80.289375 -2.40234375 79.34375 C-3.56635704 73.22190234 -4.76640483 67.10820541 -6 61 C-6.62648438 61.433125 -7.25296875 61.86625 -7.8984375 62.3125 C-8.71570313 62.869375 -9.53296875 63.42625 -10.375 64 C-11.18710937 64.556875 -11.99921875 65.11375 -12.8359375 65.6875 C-15 67 -15 67 -17 67 C-16.33501617 62.61110675 -14.81242323 59.0188515 -13 55 C-19.9434807 52.16838531 -26.93893523 49.52372657 -34 47 C-33 44 -33 44 -31.05053711 43.0168457 C-30.2178833 42.73929443 -29.38522949 42.46174316 -28.52734375 42.17578125 C-27.62822266 41.86962891 -26.72910156 41.56347656 -25.80273438 41.24804688 C-24.85720703 40.93931641 -23.91167969 40.63058594 -22.9375 40.3125 C-21.98810547 39.99216797 -21.03871094 39.67183594 -20.06054688 39.34179688 C-17.71037143 38.55053177 -15.35704662 37.77050605 -13 37 C-13.28875 36.38511719 -13.5775 35.77023437 -13.875 35.13671875 C-14.24625 34.32847656 -14.6175 33.52023437 -15 32.6875 C-15.37125 31.88699219 -15.7425 31.08648437 -16.125 30.26171875 C-17 28 -17 28 -17 25 C-12.3677032 26.32351337 -8.95272954 28.2762704 -5 31 C-4.83564453 29.52853516 -4.83564453 29.52853516 -4.66796875 28.02734375 C-3.57007992 18.56425036 -2.00736298 9.31416421 0 0 Z " fill="#000000" transform="translate(706,238)"/>
<path d="M0 0 C0.66 0 1.32 0 2 0 C3.65 10.23 5.3 20.46 7 31 C10.3 29.02 13.6 27.04 17 25 C17.66 25 18.32 25 19 25 C18.7834375 25.60328125 18.566875 26.2065625 18.34375 26.828125 C18.0653125 27.62734375 17.786875 28.4265625 17.5 29.25 C17.2215625 30.03890625 16.943125 30.8278125 16.65625 31.640625 C15.82135139 34.23412738 15.82135139 34.23412738 16 38 C25.9 41.465 25.9 41.465 36 45 C35 48 35 48 33.28173828 48.89135742 C32.18708252 49.24484253 32.18708252 49.24484253 31.0703125 49.60546875 C30.27496094 49.86650391 29.47960938 50.12753906 28.66015625 50.39648438 C27.82355469 50.65751953 26.98695312 50.91855469 26.125 51.1875 C25.29613281 51.46013672 24.46726563 51.73277344 23.61328125 52.01367188 C17.45018797 54 17.45018797 54 14 54 C14.37253906 54.75925781 14.74507812 55.51851563 15.12890625 56.30078125 C15.60199219 57.29464844 16.07507812 58.28851563 16.5625 59.3125 C17.27599609 60.79169922 17.27599609 60.79169922 18.00390625 62.30078125 C19 65 19 65 18 68 C14.7 66.02 11.4 64.04 8 62 C5.70937134 69.21957067 4.66599127 76.60849344 3.5 84.078125 C3.335 85.08101563 3.17 86.08390625 3 87.1171875 C2.855625 88.03097168 2.71125 88.94475586 2.5625 89.88623047 C2.2840625 90.93254639 2.2840625 90.93254639 2 92 C1.01 92.495 1.01 92.495 0 93 C-0.14622803 92.16750732 -0.29245605 91.33501465 -0.44311523 90.47729492 C-0.98736125 87.38517445 -1.53364119 84.29342219 -2.08129883 81.2019043 C-2.31779108 79.86448308 -2.553475 78.52691866 -2.78833008 77.18920898 C-3.12628406 75.26508622 -3.46739839 73.34151938 -3.80859375 71.41796875 C-4.01282959 70.26063232 -4.21706543 69.1032959 -4.42749023 67.91088867 C-4.9453538 64.95193024 -4.9453538 64.95193024 -6 62 C-11.445 64.97 -11.445 64.97 -17 68 C-16.12288257 62.7372954 -15.1476409 59.66878456 -13 55 C-13.60062256 54.80365967 -14.20124512 54.60731934 -14.82006836 54.4050293 C-17.5301161 53.51148289 -20.23370369 52.59977886 -22.9375 51.6875 C-24.35579102 51.2244043 -24.35579102 51.2244043 -25.80273438 50.75195312 C-26.70185547 50.44580078 -27.60097656 50.13964844 -28.52734375 49.82421875 C-29.77632446 49.40789185 -29.77632446 49.40789185 -31.05053711 48.9831543 C-33 48 -33 48 -34 45 C-27.4 42.69 -20.8 40.38 -14 38 C-13.80304035 34.82492476 -13.80304035 34.82492476 -15.5 31.5 C-17 28 -17 28 -17 25 C-12.88360352 26.45284582 -9.59720528 28.54871884 -6 31 C-5.83395264 30.12432373 -5.83395264 30.12432373 -5.66455078 29.23095703 C-5.15187533 26.52887466 -4.63844086 23.82693703 -4.125 21.125 C-3.86396484 19.74828125 -3.86396484 19.74828125 -3.59765625 18.34375 C-2.43364296 12.22190234 -1.23359517 6.10820541 0 0 Z " fill="#000000" transform="translate(34,386)"/>
<path d="M0 0 C0.66 0 1.32 0 2 0 C2.65341008 3.29020811 3.29628521 6.58239533 3.9375 9.875 C4.21110352 11.25171875 4.21110352 11.25171875 4.49023438 12.65625 C5.6715764 18.75627063 6.49585146 24.807137 7 31 C7.69867188 30.566875 8.39734375 30.13375 9.1171875 29.6875 C10.02726562 29.130625 10.93734375 28.57375 11.875 28 C12.77992188 27.443125 13.68484375 26.88625 14.6171875 26.3125 C17 25 17 25 19 25 C18.3422476 29.34116587 16.75965131 32.9947883 15 37 C15.60062256 37.19634033 16.20124512 37.39268066 16.82006836 37.5949707 C19.5301161 38.48851711 22.23370369 39.40022114 24.9375 40.3125 C25.88302734 40.62123047 26.82855469 40.92996094 27.80273438 41.24804688 C28.70185547 41.55419922 29.60097656 41.86035156 30.52734375 42.17578125 C31.77632446 42.59210815 31.77632446 42.59210815 33.05053711 43.0168457 C35 44 35 44 36 47 C29.4 49.31 22.8 51.62 16 54 C15.80304035 57.17507524 15.80304035 57.17507524 17.5 60.5 C19 64 19 64 19 67 C14.88360352 65.54715418 11.59720528 63.45128116 8 61 C7.85377197 61.83249268 7.70754395 62.66498535 7.55688477 63.52270508 C7.01263875 66.61482555 6.46635881 69.70657781 5.91870117 72.7980957 C5.68220892 74.13551692 5.446525 75.47308134 5.21166992 76.81079102 C4.87371594 78.73491378 4.53260161 80.65848062 4.19140625 82.58203125 C3.98717041 83.73936768 3.78293457 84.8967041 3.57250977 86.08911133 C3 89 3 89 2 92 C1.34 92 0.68 92 0 92 C-2.475 77.15 -2.475 77.15 -5 62 C-9.71795054 63.72999933 -9.71795054 63.72999933 -12.6875 65.625 C-15 67 -15 67 -17 67 C-16.67515625 66.09507812 -16.67515625 66.09507812 -16.34375 65.171875 C-16.0653125 64.37265625 -15.786875 63.5734375 -15.5 62.75 C-15.08234375 61.56664062 -15.08234375 61.56664062 -14.65625 60.359375 C-13.82135139 57.76587262 -13.82135139 57.76587262 -14 54 C-23.9 50.535 -23.9 50.535 -34 47 C-34 46.34 -34 45.68 -34 45 C-30.89878289 43.82538445 -27.79357759 42.66169544 -24.6875 41.5 C-23.80642578 41.16613281 -22.92535156 40.83226562 -22.01757812 40.48828125 C-21.17001953 40.17246094 -20.32246094 39.85664063 -19.44921875 39.53125 C-18.66893311 39.23798828 -17.88864746 38.94472656 -17.0847168 38.64257812 C-15 38 -15 38 -12 38 C-12.3609375 37.22914063 -12.721875 36.45828125 -13.09375 35.6640625 C-13.5578125 34.66117187 -14.021875 33.65828125 -14.5 32.625 C-14.9640625 31.62726563 -15.428125 30.62953125 -15.90625 29.6015625 C-17 27 -17 27 -17 25 C-12.80639551 25.67097672 -9.59665648 27.8558394 -6 30 C-4.04086216 23.77841362 -2.95200928 17.48865535 -1.875 11.0625 C-1.69324219 9.99708984 -1.51148438 8.93167969 -1.32421875 7.83398438 C-0.87933609 5.2232256 -0.43802909 2.61191585 0 0 Z " fill="#000000" transform="translate(192,238)"/>
</svg>
